<svg width="60" height="24" viewBox="0 0 60 24" fill="none" xmlns="http://www.w3.org/2000/svg">
<path fill-rule="evenodd" clip-rule="evenodd" d="M16.8588 9.94995C17.4051 10.1296 17.9401 10.3412 18.4611 10.5839L18.9519 9.24291C17.9519 8.74541 17.0569 8.40574 16.2452 8.18986C15.0131 5.71038 12.4423 4 9.47665 4C5.79831 4 2.72895 6.62963 2.06526 10.0961C1.5289 9.91835 1.00341 9.70967 0.491474 9.47114L0 10.8118C0.693233 11.1568 1.33477 11.4241 1.93367 11.6283C1.94239 12.1258 1.99879 12.6113 2.10051 13.0804C1.55218 12.8996 1.01502 12.6869 0.491809 12.4434L0.000335522 13.7851C1.00779 14.286 1.90782 14.6256 2.72358 14.8415C3.962 17.3043 6.52277 19 9.47698 19C13.1456 19 16.2099 16.3844 16.8833 12.9296C17.421 13.1079 17.9479 13.3172 18.4611 13.5562L18.9519 12.2156C18.2597 11.8709 17.6182 11.6036 17.0196 11.3997C17.014 10.9124 16.9601 10.4268 16.8588 9.94995ZM9.47698 5.61795C11.3683 5.61795 13.0536 6.50651 14.1383 7.88422C10.0205 7.82516 8.22111 11.2232 3.64879 10.4875C4.13388 7.72506 6.56104 5.61795 9.47698 5.61795ZM3.58635 12.0554C8.53331 12.8919 10.2437 8.90157 15.051 9.53053C15.2155 9.98832 15.3236 10.4711 15.369 10.9723C10.4237 10.1348 8.71157 14.1201 3.91198 13.4972C3.74221 13.0323 3.63279 12.5478 3.58635 12.0554ZM9.47698 17.3814C7.59736 17.3814 5.92118 16.5055 4.83652 15.1428C8.93817 15.1905 10.7386 11.8081 15.2995 12.5392C14.804 15.2873 12.3825 17.3814 9.47698 17.3814Z" fill="#999DA0"/>
<path fill-rule="evenodd" clip-rule="evenodd" d="M24.4656 8.47046L22.5178 13.998H24.6485L25.0218 12.8055H26.6903L27.0717 13.998H29.3122L27.3339 8.47046H24.4656ZM25.8719 9.78144L26.452 11.5108H25.2683L25.84 9.78144H25.8719ZM34.1027 8.56522C33.497 8.43637 32.8791 8.37294 32.2597 8.37603C29.9 8.37603 29.3914 9.39472 29.3914 10.1685C29.3914 11.5265 30.6154 11.7557 31.417 11.9212C31.8306 12.0083 32.3231 12.0477 32.3231 12.3794C32.3231 12.719 31.7507 12.7664 31.3697 12.7664C30.9165 12.7664 30.2572 12.711 29.4548 12.3954V13.8325C30.3367 14.055 31.1945 14.0944 31.7504 14.0944C34.1816 14.0944 34.4676 12.8612 34.4676 12.2376C34.4676 10.8478 33.2127 10.6503 32.2271 10.4608C31.8699 10.3974 31.5359 10.3343 31.5359 10.0737C31.5359 9.7107 32.0284 9.70269 32.45 9.70269C33.2205 9.70269 33.7448 9.85284 34.1024 9.98698L34.1027 8.56522ZM39.5764 8.56522C38.9707 8.43634 38.3528 8.37291 37.7334 8.37603C35.3744 8.37603 34.8654 9.39472 34.8654 10.1685C34.8654 11.5265 36.0891 11.7557 36.8914 11.9212C37.3043 12.0083 37.7968 12.0477 37.7968 12.3794C37.7968 12.719 37.2251 12.7664 36.8434 12.7664C36.3909 12.7664 35.7315 12.711 34.9289 12.3954V13.8325C35.8108 14.055 36.6692 14.0944 37.2251 14.0944C39.6556 14.0944 39.9416 12.8612 39.9416 12.2376C39.9416 10.8478 38.6868 10.6503 37.7018 10.4608C37.3439 10.3974 37.0106 10.3343 37.0106 10.0737C37.0106 9.7107 37.5031 9.70269 37.924 9.70269C38.6945 9.70269 39.2189 9.85284 39.5764 9.98698V8.56522ZM40.5775 8.47046V13.998H42.7065V8.47046H40.5775ZM48.0536 8.56522C47.4477 8.43634 46.8296 8.37291 46.2099 8.37603C43.8509 8.37603 43.342 9.39472 43.342 10.1685C43.342 11.5265 44.5656 11.7557 45.368 11.9212C45.7809 12.0083 46.274 12.0477 46.274 12.3794C46.274 12.719 45.7017 12.7664 45.32 12.7664C44.8674 12.7664 44.2081 12.711 43.4054 12.3954V13.8325C44.2873 14.055 45.1457 14.0944 45.7017 14.0944C48.1329 14.0944 48.4189 12.8612 48.4189 12.2376C48.4189 10.8478 47.164 10.6503 46.1784 10.4608C45.8212 10.3974 45.4872 10.3343 45.4872 10.0737C45.4872 9.7107 45.9796 9.70269 46.4006 9.70269C47.1717 9.70269 47.6954 9.85284 48.0536 9.98698V8.56522ZM48.6968 8.47046V10.1051H50.5718V13.998H52.7008V10.1051H54.5754V8.47046H48.6968ZM56.4691 8.50216V8.60926H56.8669V9.81981H56.9918V8.60926H57.3876V8.50216H56.4691ZM58.299 9.70102L58.244 9.52618L57.8029 8.50216H57.6055V9.81981H57.7307V8.79946L57.7267 8.62061H57.7344L57.7988 8.79378L58.2379 9.81981H58.3672L58.8066 8.79378L58.8708 8.62061H58.8788L58.8748 8.79946V9.81981H59V8.50216H58.8026L58.3615 9.52618L58.3064 9.70102H58.299Z" fill="#999DA0"/>
</svg>
