<svg width="63" height="24" viewBox="0 0 63 24" fill="none" xmlns="http://www.w3.org/2000/svg">
<path d="M22.7562 13.2062C22.7562 15.0484 21.5447 16.3483 19.8503 16.3483C18.2529 16.3483 16.9337 15.1805 16.9337 12.8809V11.7489C16.9337 9.53356 17.8882 7.92364 19.657 7.55054L22.2704 7.18607V8.36578L19.9035 8.68179C18.8315 8.92279 18.1772 9.69222 18.1128 11.2935C18.52 10.3787 19.3137 10.135 20.043 10.135C21.6091 10.1357 22.7562 11.3758 22.7562 13.2062ZM21.5553 13.1942C21.5553 12.0869 20.8479 11.2922 19.8616 11.2922C18.8645 11.2922 18.1571 12.0869 18.1571 13.1942C18.1571 14.3261 18.8645 15.1082 19.8616 15.1082C20.8479 15.1082 21.5553 14.3255 21.5553 13.1942Z" fill="#A3A7AA"/>
<path d="M29.1354 13.5674C29.1396 13.3702 29.1354 13.1817 29.1236 12.9998C28.9871 10.9743 27.8441 9.85895 26.2963 9.85895C24.6427 9.85895 23.4572 11.267 23.4572 13.122C23.4572 15.0711 24.6953 16.3604 26.3825 16.3604C27.6296 16.3604 28.6212 15.5411 28.9647 14.4889H27.7809C27.5078 14.9045 27.0457 15.2172 26.3926 15.2172C25.4743 15.2172 24.7597 14.542 24.6847 13.5674H29.1354ZM24.6858 12.5198C24.7491 11.6295 25.4222 10.9789 26.2969 10.9789C27.2052 10.9789 27.8447 11.6408 27.8772 12.5198H24.6858Z" fill="#A3A7AA"/>
<path d="M29.5473 15.0478C29.9764 15.0239 30.4261 14.759 30.4261 13.7598V9.99165H34.793V16.2401H33.5815V11.2198H31.617V13.7844C31.617 15.5178 30.7057 16.3006 29.5367 16.2766L29.5473 15.0478Z" fill="#A3A7AA"/>
<path d="M38.1038 12.9054L40.7697 9.99088H39.3584L37.0547 12.503V9.99088H35.8426V16.2393H37.0547V13.309L37.8715 14.3413L39.3696 16.2393H40.7797L38.1038 12.9054Z" fill="#A3A7AA"/>
<path d="M45.6178 9.98517L45.4706 10.9133C44.993 10.2574 44.1722 9.86435 43.4334 9.86435C43.4246 9.86435 43.4168 9.86568 43.408 9.86568C43.395 9.86568 43.3826 9.86435 43.369 9.86435C42.5659 9.86435 41.9122 10.1943 41.4441 10.7314C41.4217 10.7566 41.398 10.7818 41.3762 10.8077C41.3632 10.8237 41.3507 10.8416 41.3384 10.8582C40.8874 11.4311 40.6351 12.2112 40.6351 13.1028C40.6351 13.1067 40.6356 13.1108 40.6356 13.1147C40.6356 13.1187 40.6351 13.1227 40.6351 13.1267C40.6351 14.0183 40.8874 14.799 41.3384 15.3713C41.3514 15.3878 41.3632 15.4051 41.3762 15.4217C41.398 15.4483 41.4217 15.4728 41.4441 15.498C41.9122 16.0352 42.5659 16.3651 43.369 16.3651C43.382 16.3651 43.395 16.3638 43.408 16.3638C43.4168 16.3638 43.4246 16.3651 43.4334 16.3651C44.1722 16.3651 44.993 15.9721 45.4706 15.3162V16.2443H46.7034V9.98584L45.6178 9.98517ZM43.6799 15.1143C42.6291 15.1143 41.8785 14.2839 41.8785 13.1161C41.8785 11.9483 42.6291 11.1178 43.6799 11.1178C44.72 11.1178 45.46 11.9848 45.46 13.1161C45.46 14.2473 44.72 15.1143 43.6799 15.1143Z" fill="#A3A7AA"/>
<path d="M47.7505 9.9849V19.0582H48.9833V15.3166C49.4608 15.9725 50.2817 16.3655 51.0205 16.3655C51.0293 16.3655 51.037 16.3642 51.0459 16.3642C51.0589 16.3642 51.0713 16.3655 51.0849 16.3655C51.888 16.3655 52.5417 16.0356 53.0098 15.4984C53.0322 15.4732 53.0558 15.448 53.0777 15.4221C53.0907 15.4062 53.1031 15.3882 53.1156 15.3716C53.5665 14.7987 53.8188 14.0187 53.8188 13.127C53.8188 13.1231 53.8182 13.1191 53.8182 13.1151C53.8182 13.1112 53.8188 13.1071 53.8188 13.1032C53.8188 12.2116 53.5665 11.4308 53.1156 10.8586C53.1025 10.842 53.0907 10.8247 53.0777 10.8081C53.0558 10.7816 53.0322 10.757 53.0098 10.7318C52.5417 10.1947 51.888 9.86474 51.0849 9.86474C51.0719 9.86474 51.0589 9.86606 51.0459 9.86606C51.037 9.86606 51.0293 9.86474 51.0205 9.86474C50.2817 9.86474 49.4608 10.2578 48.9833 10.9137L48.8361 9.98556L47.7505 9.9849ZM48.9945 13.1151C48.9945 11.9832 49.7344 11.1168 50.7746 11.1168C51.8254 11.1168 52.576 11.9473 52.576 13.1151C52.576 14.2829 51.8254 15.1134 50.7746 15.1134C49.7344 15.1141 48.9945 14.247 48.9945 13.1151Z" fill="#A3A7AA"/>
<path d="M63 12.3423V16.2479H61.7761V12.6915C61.7761 11.5582 61.2607 11.0517 60.5734 11.0517C59.8648 11.0517 59.3282 11.5821 59.3282 12.6915V16.2479H58.1042V12.6915C58.1042 11.5582 57.5782 11.0517 56.9122 11.0517C56.1929 11.0517 55.6563 11.5821 55.6563 12.6915V16.2479H54.4217V9.99145H55.4985L55.638 10.8937C55.9601 10.255 56.4938 9.85933 57.3206 9.85933C58.0717 9.85933 58.6875 10.2065 59.0203 10.8937C59.3855 10.255 59.9936 9.85933 60.8955 9.85933C62.1519 9.85867 63 10.8113 63 12.3423Z" fill="#A3A7AA"/>
<path d="M5.96721 16.7961L3.79295 19.1914C3.64697 19.352 3.64933 19.5578 3.69957 19.6973C3.7498 19.8367 3.87686 19.9854 4.08076 19.986L7.90686 20C8.20119 20.0013 8.44522 19.7331 8.45057 19.4018C8.45057 19.3846 8.45113 19.3666 8.45113 19.3487C8.45352 18.4073 8.1208 17.4858 7.53391 16.8134C7.10547 16.3234 6.40338 16.3154 5.96721 16.7961Z" fill="#A3A7AA"/>
<path d="M3.47087 14.9741L0.42547 14.9408C0.221581 14.9389 0.0933301 15.0856 0.0413223 15.2244C-0.0106785 15.3631 -0.0148209 15.5689 0.12879 15.7316L2.8255 18.7801C3.03294 19.0145 3.37453 19.0185 3.58611 18.7894C3.59734 18.7775 3.60857 18.7649 3.6198 18.7522C4.21434 18.0884 4.55889 17.1729 4.56716 16.2308C4.57307 15.5443 4.08136 14.9807 3.47087 14.9741Z" fill="#A3A7AA"/>
<path d="M0.532489 14.4922C0.548446 14.4922 0.563813 14.4928 0.57977 14.4928C1.4178 14.4955 2.2381 14.1217 2.83678 13.4625C3.27293 12.9825 3.27944 12.1931 2.85214 11.7032L0.719836 9.26075C0.576817 9.09676 0.393611 9.09942 0.269496 9.15585C0.145387 9.21228 0.0130081 9.35501 0.0124173 9.58406L4.36616e-06 13.8813C-0.00117715 14.212 0.237588 14.4862 0.532489 14.4922Z" fill="#A3A7AA"/>
<path d="M1.11052 9.06624C1.70151 9.73411 2.5165 10.1212 3.35512 10.1305C3.96562 10.1371 4.46737 9.58473 4.47328 8.89895L4.50283 5.47794C4.50461 5.24891 4.37399 5.10484 4.25047 5.04642C4.12696 4.988 3.94375 4.98335 3.79895 5.14468L1.0857 8.17398C0.877076 8.40701 0.873532 8.79073 1.07743 9.0284C1.08865 9.04102 1.09929 9.05363 1.11052 9.06624Z" fill="#A3A7AA"/>
<path d="M7.3851 8.20391L9.55937 5.80862C9.7053 5.64796 9.70298 5.44216 9.65269 5.30274C9.60248 5.16332 9.47539 5.01461 9.27151 5.01395L5.44602 5C5.1517 4.99868 4.90762 5.26689 4.9023 5.59816C4.9023 5.61609 4.90171 5.63335 4.90171 5.65127C4.89935 6.59267 5.23208 7.51413 5.81893 8.18666C6.24681 8.6766 6.94948 8.6839 7.3851 8.20391Z" fill="#A3A7AA"/>
<path d="M9.8821 10.0249L12.9275 10.0581C13.1313 10.0601 13.2596 9.91335 13.3116 9.7746C13.3636 9.63585 13.3678 9.43004 13.2242 9.26739L10.5274 6.21883C10.32 5.98448 9.97838 5.98049 9.76684 6.20954C9.75558 6.22149 9.7444 6.2341 9.73315 6.24671C9.13859 6.9106 8.79405 7.8261 8.78575 8.76815C8.77928 9.45527 9.27158 10.0182 9.8821 10.0249Z" fill="#A3A7AA"/>
<path d="M12.8204 10.5069C12.8044 10.5069 12.7891 10.5063 12.7731 10.5063C11.9351 10.5036 11.1147 10.8774 10.5161 11.5366C10.0799 12.0166 10.0735 12.806 10.5007 13.2959L12.6331 15.7383C12.776 15.9023 12.9593 15.8997 13.0834 15.8432C13.2075 15.7868 13.3399 15.644 13.3404 15.415L13.3529 11.117C13.3534 10.7871 13.1147 10.5129 12.8204 10.5069Z" fill="#A3A7AA"/>
<path d="M12.2419 15.9334C11.6509 15.2655 10.836 14.8784 9.9973 14.8692C9.38685 14.8626 8.88506 15.4149 8.87915 16.1007L8.84961 19.5217C8.84785 19.7507 8.97845 19.8948 9.10195 19.9532C9.22552 20.0116 9.40872 20.0163 9.55346 19.8549L12.2674 16.8256C12.476 16.5926 12.4795 16.2089 12.2756 15.9712C12.2644 15.9586 12.2532 15.9454 12.2419 15.9334Z" fill="#A3A7AA"/>
</svg>
