<svg width="46" height="24" viewBox="0 0 46 24" fill="none" xmlns="http://www.w3.org/2000/svg">
<path d="M23.4632 10.0821C24.0641 10.8387 24.2851 11.723 24.126 12.7439H19.5129C19.7338 13.5005 20.3436 13.9837 21.1478 13.9837C21.8283 13.9837 22.3143 13.7011 22.6325 13.1268L23.9139 13.7284C23.366 14.7312 22.3497 15.3784 21.1036 15.3784C20.1845 15.3784 19.4333 15.0684 18.8236 14.4577C18.2138 13.8469 17.9045 13.0812 17.9045 12.1788C17.9045 11.2672 18.2049 10.5106 18.8059 9.89983C19.4068 9.28907 20.1492 8.97914 21.0417 8.97914C22.0492 8.97002 22.8534 9.34377 23.4632 10.0821ZM19.5394 11.5133H22.5618C22.3408 10.8114 21.7752 10.3556 21.0417 10.3556C20.3524 10.3556 19.7603 10.8114 19.5394 11.5133Z" fill="#A3A7AA"/>
<path d="M30.4802 9.88936C31.0281 10.5001 31.3021 11.2658 31.3021 12.1683C31.3021 13.0799 31.0281 13.8365 30.4802 14.4472C29.9323 15.058 29.2518 15.3679 28.4299 15.3679C27.6611 15.3679 27.0248 15.0853 26.5299 14.5202V17.6377H24.9657V9.08718H26.5299V9.81643C27.0248 9.25126 27.6611 8.96867 28.4299 8.96867C29.2607 8.96867 29.9411 9.27861 30.4802 9.88936ZM28.1118 13.9003C28.5625 13.9003 28.9337 13.7362 29.2342 13.3989C29.5346 13.0799 29.6849 12.6605 29.6849 12.1683C29.6849 11.676 29.5346 11.2567 29.2342 10.9377C28.9337 10.6186 28.5625 10.4454 28.1118 10.4454C27.6611 10.4454 27.2899 10.6095 26.9895 10.9377C26.689 11.275 26.5388 11.676 26.5388 12.1683C26.5388 12.6605 26.689 13.0799 26.9895 13.3989C27.2899 13.7362 27.6611 13.9003 28.1118 13.9003Z" fill="#A3A7AA"/>
<path d="M33.6617 12.8975L36.5073 9.08715H38.0274V15.2494H36.4631V11.439L33.6087 15.2494H32.0975V9.08715H33.6617V12.8975Z" fill="#A3A7AA"/>
<path d="M40.8376 15.2494H39.2734V9.08715H45V15.2494H43.4358V10.5092H40.8376V15.2494Z" fill="#A3A7AA"/>
<path d="M7.42341 8.67755L3.7117 4.0103H0L5.55872 11.0203L7.42341 8.67755Z" fill="#A3A7AA"/>
<path d="M15.218 11.495L13.9189 9.8542L5.87691 20H9.08489C9.41187 20 9.71234 19.8541 9.9156 19.5898L15.2269 12.8988C15.545 12.4886 15.545 11.9052 15.218 11.495Z" fill="#A3A7AA"/>
<path d="M12.4342 7.97446C12.4342 7.97446 10.764 5.86872 9.60628 4.41021C9.40302 4.15497 9.09371 4 8.77556 4H5.56759L9.27046 8.66725L0.291669 19.9981H4.01221L12.4342 9.3874C12.7612 8.97719 12.7612 8.38467 12.4342 7.97446Z" fill="#A3A7AA"/>
</svg>
