<svg width="27" height="24" viewBox="0 0 27 24" fill="none" xmlns="http://www.w3.org/2000/svg">
<path fill-rule="evenodd" clip-rule="evenodd" d="M24.8998 12C24.8998 15.866 21.7658 19 17.8998 19C16.58 19 15.3455 18.6347 14.2919 17.9998C15.9526 16.5339 17 14.3893 17 12C17 9.61072 15.9526 7.46608 14.2919 6.0002C15.3455 5.36526 16.58 5 17.8998 5C21.7658 5 24.8998 8.13401 24.8998 12ZM2 12C2 8.13401 5.13401 5 9 5C10.3198 5 11.5543 5.36526 12.6079 6.0002C10.9472 7.46608 9.89978 9.61072 9.89978 12C9.89978 14.3893 10.9472 16.5339 12.6079 17.9998C11.5543 18.6347 10.3198 19 9 19C5.13401 19 2 15.866 2 12ZM13.4499 6.59618C15.0072 7.88007 16 9.82409 16 12C16 14.1759 15.0072 16.1199 13.4499 17.4038C11.8926 16.1199 10.8998 14.1759 10.8998 12C10.8998 9.82409 11.8926 7.88007 13.4499 6.59618Z" fill="#A3A7AA"/>
</svg>
