<svg width="32" height="24" viewBox="0 0 32 24" fill="none" xmlns="http://www.w3.org/2000/svg">
<path d="M20.4772 9.91162H19.7405L19.9657 8.84897H20.5906C20.7949 8.84897 20.9441 8.87722 21.0372 8.93662C21.1319 8.99529 21.1782 9.08801 21.1782 9.21622C21.1782 9.24158 21.1737 9.26694 21.1722 9.29301C21.1663 9.32054 21.1633 9.35096 21.1566 9.38356C21.1163 9.5632 21.0432 9.69576 20.9329 9.78196C20.8203 9.86816 20.6689 9.91162 20.4772 9.91162ZM14.5775 11.4147C14.7534 11.4147 14.8958 11.3553 15.0077 11.2372C15.1195 11.1199 15.1986 10.9417 15.2478 10.7055C15.2552 10.6686 15.2612 10.6302 15.2649 10.5911C15.2679 10.5534 15.2701 10.5179 15.2701 10.4853C15.2701 10.3484 15.2344 10.2412 15.1613 10.1652C15.089 10.0891 14.9868 10.0507 14.8541 10.0507C14.6788 10.0507 14.5364 10.1108 14.4245 10.2304C14.312 10.3506 14.2322 10.531 14.1815 10.7722C14.1748 10.8091 14.1688 10.8468 14.1643 10.8823C14.1606 10.9192 14.1591 10.954 14.1598 10.9859C14.1598 11.1228 14.1964 11.2285 14.2695 11.3032C14.341 11.3778 14.4432 11.4147 14.5775 11.4147ZM22.5331 11.4422C22.7367 11.5053 22.9991 11.2843 23.1147 10.9489C23.2333 10.6135 23.1609 10.2905 22.9559 10.2289C22.7538 10.1666 22.4906 10.3861 22.3758 10.7222C22.255 11.0583 22.3288 11.3814 22.5331 11.4422ZM16.9263 14.4455H17.9553C18.0397 14.4571 18.0873 14.4245 18.0934 14.3477L18.1634 14.1043H17.0225L16.9263 14.4455ZM20.094 15.8834H20.6689L20.8158 15.3778H20.2409L20.094 15.8834ZM20.3281 15.0982C20.3281 15.0982 20.701 14.9199 20.9545 14.9047C21.0298 14.6367 21.1029 14.402 21.1029 14.402H20.5257L20.3281 15.0982ZM20.6167 14.0891C20.6167 14.0891 20.9515 13.9638 21.2415 13.9283C21.3057 13.6958 21.3885 13.4234 21.3885 13.4234H20.8128L20.6167 14.0891ZM17.0948 13.8349C17.0948 13.8349 17.2842 13.7023 17.6004 13.6972C17.9174 13.6929 18.2782 13.6972 18.2782 13.6972L18.37 13.372H17.2313L17.0948 13.8349ZM29.8781 5.55161L26.8752 18.4586C26.6805 19.2872 25.8529 19.9587 24.9991 20H18.329C17.4632 19.987 16.9248 19.2995 17.1224 18.4527L17.3558 17.4487H16.8324L16.599 18.4527C16.4013 19.2988 16.939 19.987 17.8054 20H10.714C9.84907 19.987 9.30995 19.2995 9.5083 18.4527L10.2055 15.4567H9.59405L8.89684 18.4527C8.69849 19.2988 9.23762 19.987 10.1033 20H4.24082C3.54435 19.9906 3.05965 19.5407 3 18.925V18.686C3.00597 18.6106 3.01641 18.5331 3.03505 18.4549L6.03865 5.54726C6.23998 4.69178 7.36745 4 8.24735 4L14.0741 4.00145C13.1994 4.01883 12.0981 4.70337 11.9004 5.54726L11.3367 7.97175H11.9474L12.5119 5.54726C12.7095 4.70264 13.8101 4.01883 14.6848 4.00145C14.6967 4.00072 14.7079 4 14.7191 4L19.2334 4.00217H21.7717C21.7665 4.00217 21.7614 4.0029 21.7568 4.0029C20.8844 4.02898 19.798 4.70844 19.5996 5.54654L19.0351 7.97102H19.5586L20.123 5.54654C20.3207 4.70844 21.4072 4.02898 22.2796 4.0029C22.284 4.0029 22.2885 4.00217 22.2952 4.00217H22.2967L28.6462 4.00362C29.5253 4.0029 30.0787 4.69685 29.8781 5.55161ZM9.21898 10.6005L9.75363 8.09562H8.95053L8.4211 10.5715C8.37487 10.7903 8.27122 10.9576 8.11238 11.0757C7.95356 11.1952 7.74924 11.2539 7.50093 11.2539C7.28394 11.2539 7.12883 11.1938 7.03339 11.0728C6.96777 10.9917 6.9357 10.8881 6.93645 10.7613C6.9357 10.7041 6.94167 10.6403 6.95808 10.5708L7.48601 8.0949H6.67845L6.14379 10.5998C6.11769 10.7215 6.10501 10.8352 6.10501 10.941C6.10501 11.1959 6.18182 11.4075 6.33468 11.5733C6.5554 11.8073 6.9014 11.9239 7.37416 11.9239C7.87601 11.9239 8.28613 11.8095 8.60304 11.582C8.92294 11.351 9.12949 11.0257 9.21898 10.6005ZM11.7461 9.76168C11.6372 9.6255 11.4642 9.55741 11.2241 9.55741C10.9594 9.55741 10.735 9.65302 10.5493 9.84498L10.468 9.93698L10.5329 9.61463H9.96242L9.50234 11.8508H10.0892L10.3509 10.5665C10.3845 10.4049 10.4531 10.2782 10.5567 10.1869C10.6603 10.0963 10.7872 10.0507 10.9378 10.0507C11.0608 10.0507 11.1458 10.0848 11.1898 10.1536C11.2353 10.2217 11.2435 10.3281 11.2144 10.4708L10.9303 11.8515H11.5171L11.8303 10.3281C11.8818 10.0862 11.8527 9.89858 11.7461 9.76168ZM22.8478 11.7117L22.9551 11.8327L23.6845 11.8508L24.1617 9.74285L23.5286 9.79718L23.2617 9.9761C22.982 9.76386 22.7262 9.63202 22.2341 9.8544C21.5622 10.1565 21.0007 12.4766 22.8478 11.7117ZM23.4123 13.2278C23.3265 13.2278 23.2847 13.1966 23.29 13.13L23.2594 12.8707H22.5331L22.5577 13.4401C22.5682 13.6038 22.6718 13.6777 22.8753 13.6668H23.4085L23.5398 13.2278H23.4123ZM18.5586 11.8508H19.3274L19.6018 10.5411H20.4906C20.8479 10.5411 21.1588 10.4354 21.4228 10.226C21.6845 10.0152 21.8538 9.7385 21.9269 9.3937C21.9418 9.33068 21.9507 9.26983 21.9589 9.21043C21.9641 9.15031 21.9679 9.09381 21.9679 9.04455V9.03658C21.9679 8.77581 21.8836 8.57588 21.7143 8.4368C21.5436 8.29917 21.2983 8.22818 20.9806 8.22818H19.323L18.5586 11.8508ZM16.0434 11.8508H16.6295L16.892 10.5665C16.9248 10.4049 16.9934 10.2782 17.097 10.1869C17.2015 10.0963 17.3282 10.0507 17.4788 10.0507C17.6011 10.0507 17.684 10.0848 17.7309 10.1536C17.7764 10.2217 17.7831 10.3281 17.7541 10.4708L17.4699 11.8515H18.0568L18.37 10.3281C18.4214 10.0869 18.3908 9.89858 18.2857 9.76241C18.1769 9.62622 18.0031 9.55813 17.7644 9.55813C17.5005 9.55813 17.2746 9.65375 17.0896 9.84571L17.0098 9.9377L17.0747 9.61536H16.5035L16.0434 11.8508ZM15.4021 13.1641L15.5625 12.8895H14.7952L14.5089 13.3068C14.4767 13.372 14.4089 13.4046 14.3068 13.4046H14.1964L14.0719 13.8435H14.6423C14.8295 13.8544 14.9846 13.7682 15.1106 13.5842H16.2052L16.3224 13.1641H15.4021ZM13.2427 9.61536H12.6103L12.1159 11.8501H12.7468L13.2427 9.61536ZM13.447 8.80043H12.8087L12.6901 9.34372H13.3277L13.447 8.80043ZM13.5521 11.0576C13.5529 11.3205 13.6364 11.527 13.8027 11.6813C13.9675 11.8327 14.1919 11.9087 14.4767 11.9087C14.8213 11.9087 15.1165 11.8044 15.3626 11.5936C15.6094 11.385 15.7683 11.0996 15.8413 10.7425C15.8518 10.6882 15.86 10.6331 15.8682 10.5752C15.8742 10.5187 15.8779 10.4658 15.8779 10.4201C15.8779 10.1543 15.7951 9.94422 15.6303 9.78921C15.4656 9.63491 15.2403 9.55741 14.9555 9.55741C14.6088 9.55741 14.312 9.66462 14.0666 9.8783C13.8206 10.0905 13.6618 10.3788 13.5857 10.7425C13.5752 10.7939 13.5671 10.8482 13.5603 10.9055C13.5551 10.9605 13.5521 11.0112 13.5521 11.0576ZM15.5327 16.1565H14.8899C14.7259 16.1674 14.6662 16.1181 14.7109 16.0102L14.8944 15.3604H15.684L15.8123 14.904H15.0233L15.1471 14.4636H15.9577L16.0859 14.008H14.0696L13.9428 14.4636H14.4245L14.3015 14.9026H13.7967L13.6692 15.3604H14.1733L13.9391 16.1905C13.8661 16.4513 13.9458 16.5817 14.1808 16.5817H15.4148L15.5327 16.1565ZM18.7376 15.0163H18.1918L18.1396 15.1952C18.1396 15.2488 18.0956 15.277 18.0068 15.277H17.8316L17.845 15.0011H17.1866L17.1373 16.2702C17.1344 16.4868 17.244 16.5882 17.4639 16.5802H18.2529L18.361 16.205H18.0329C17.8875 16.205 17.8166 16.1659 17.8234 16.092L17.8249 15.6197H18.1754C18.4408 15.6081 18.6048 15.4951 18.6668 15.277L18.7376 15.0163ZM18.7696 14.5926L19.2573 12.8765H17.9807C17.6362 12.8765 17.2552 13.1539 17.2552 13.1539L17.2857 12.8866H16.6109L15.6535 16.3187C15.6079 16.4831 15.7228 16.5629 16.0009 16.5629H16.7242L16.8294 16.1883H16.5445C16.4708 16.1883 16.4439 16.1543 16.4633 16.0906L16.8018 14.8852H18.2477C18.5556 14.8859 18.7294 14.7896 18.7696 14.5926ZM21.4892 16.3709L21.6301 15.8826H21.4802L22.2005 13.4226H22.3497L22.501 12.9018C22.501 12.9018 21.8322 12.9018 21.5481 12.9018C21.2632 12.9018 20.8702 13.0938 20.8702 13.0938L20.9038 12.9018H20.1327L19.9806 13.4226H20.129L19.4087 15.8826H19.261L19.1186 16.3709H20.5928L20.5302 16.5824H21.2766L21.3393 16.3709H21.4892ZM24.671 13.8146H22.3221L22.1826 14.2869H22.9947L22.865 14.7251H22.0544L21.9142 15.1959H22.6629L22.0834 16.0102C22.0185 16.0854 21.9433 16.1238 21.8561 16.1238H21.6442L21.5093 16.5802H22.1938C22.3743 16.5918 22.5108 16.5208 22.5972 16.3687L22.9671 15.8305L23.076 16.3346C23.0864 16.4991 23.2057 16.5737 23.4368 16.5621H23.885L24.0185 16.1058H23.8917C23.806 16.1058 23.756 16.0797 23.7448 16.0246L23.6501 15.4698H23.2452L23.4331 15.1938H24.2646L24.4047 14.723H23.6576L23.7866 14.2839H24.5338L24.671 13.8146ZM26.7678 9.61536H26.0937L25.427 11.125L25.3891 9.61536H25.0349L24.6136 9.62115L24.8149 12.0275C24.6456 12.355 24.3495 13.0923 23.803 13.2554L23.7463 13.6386C24.3973 13.6617 24.6665 13.3488 24.8037 13.2134C24.9402 13.0771 25.1721 12.7845 25.4136 12.2818L26.7678 9.61536Z" fill="#A3A7AA"/>
</svg>
