<svg width="38" height="24" viewBox="0 0 38 24" fill="none" xmlns="http://www.w3.org/2000/svg">
<path d="M14.0484 6.21097L9.20375 17.8181H6.04333L3.65953 8.55677C3.515 7.98581 3.38974 7.77677 2.94844 7.53677C2.22964 7.14581 1.04255 6.77806 0 6.54968L0.0713023 6.2129H5.1588C5.8063 6.2129 6.39021 6.64645 6.53667 7.39742L7.79505 14.1135L10.9073 6.2129L14.0484 6.21097ZM26.4299 14.0303C26.4434 10.9665 22.2116 10.7981 22.2405 9.42968C22.2501 9.01355 22.6452 8.57032 23.5085 8.45806C23.9363 8.40194 25.1176 8.35935 26.455 8.97677L26.9792 6.51484C26.2604 6.25355 25.3334 6 24.183 6C21.2287 6 19.1475 7.57742 19.1302 9.83613C19.1109 11.5064 20.614 12.4394 21.7471 12.9948C22.913 13.5639 23.3042 13.9297 23.2984 14.4368C23.2907 15.2148 22.3696 15.5594 21.5082 15.5729C20.0051 15.5961 19.134 15.1645 18.4383 14.8394L17.8968 17.3826C18.5944 17.7039 19.8856 17.9845 21.221 18C24.366 18.0019 26.4203 16.4419 26.4299 14.0303ZM34.2346 17.82H37L34.5854 6.21097H32.0339C31.4596 6.21097 30.9759 6.54581 30.762 7.06258L26.2758 17.8181H29.415L30.0374 16.0839H33.8743L34.2346 17.82ZM30.8989 13.7071L32.4733 9.34839L33.379 13.7071H30.8989ZM18.3189 6.21097L15.8464 17.8181H12.8575L15.3299 6.21097H18.3189Z" fill="#A3A7AA"/>
</svg>
