<svg width="24" height="24" viewBox="0 0 24 24" fill="none" xmlns="http://www.w3.org/2000/svg">
<path d="M9.56364 3.35829L7.3091 8.75222H5.83031L4.71516 4.4492C4.64243 4.18253 4.59395 4.08556 4.38789 3.97647C4.04849 3.79465 3.50304 3.62495 3.01819 3.51586L3.05455 3.35829H5.43031C5.73334 3.35829 6.00001 3.56435 6.07273 3.90374L6.64243 7.03101L8.09698 3.35829H9.56364ZM15.3333 6.99465C15.3455 5.57647 13.3697 5.49162 13.3818 4.86132C13.3818 4.66738 13.5758 4.46132 13.9758 4.41283C14.1697 4.38859 14.7273 4.36435 15.3455 4.65526L15.5879 3.51586C15.2485 3.39465 14.8242 3.27344 14.2788 3.27344C12.897 3.27344 11.9273 4.00071 11.9273 5.05526C11.9152 5.83101 12.6182 6.26738 13.1515 6.52192C13.697 6.78859 13.8788 6.95829 13.8788 7.18859C13.8788 7.55223 13.4424 7.7098 13.0424 7.72192C12.3394 7.73404 11.9394 7.52798 11.6121 7.38253L11.3576 8.55829C11.6849 8.70374 12.2909 8.83707 12.9091 8.8492C14.3758 8.83707 15.3333 8.1098 15.3333 6.99465ZM18.9818 8.75222H20.2667L19.1394 3.35829H17.9515C17.6849 3.35829 17.4546 3.51586 17.3576 3.75829L15.2606 8.75222H16.7273L17.0182 7.95223H18.8121L18.9818 8.75222ZM17.4182 6.83707L18.1576 4.81283L18.5818 6.83707H17.4182ZM11.5515 3.35829L10.4 8.75222H9.00607L10.1576 3.35829H11.5515Z" fill="#A3A7AA"/>
<path fill-rule="evenodd" clip-rule="evenodd" d="M0 12H24V24H0V12ZM9.78178 17.9147C9.78178 18.1207 9.81814 18.3026 9.89087 18.448C9.9636 18.6056 10.0727 18.7147 10.2181 18.7995C10.3636 18.8844 10.5333 18.9207 10.7272 18.9207C10.9333 18.9207 11.103 18.8844 11.2363 18.8238C11.3697 18.7632 11.4909 18.6783 11.5878 18.5813H11.6L11.5515 19.0541C11.4424 19.1268 11.3212 19.1874 11.1757 19.2359C11.0303 19.2844 10.8606 19.3086 10.6787 19.3086C10.4606 19.3086 10.2666 19.2723 10.0969 19.1995C9.92723 19.1268 9.78178 19.0298 9.66057 18.8965C9.53936 18.7632 9.44239 18.6177 9.38178 18.448C9.32117 18.2783 9.28481 18.0965 9.28481 17.9026C9.28481 17.7086 9.32117 17.5147 9.38178 17.345C9.44239 17.1753 9.53936 17.0298 9.66057 16.8965C9.78178 16.7632 9.92723 16.6662 10.0969 16.5935C10.2666 16.5207 10.4606 16.4844 10.6666 16.4844C10.8606 16.4844 11.0181 16.5086 11.1636 16.545C11.2969 16.5813 11.4181 16.642 11.5151 16.7147L11.5636 17.1995H11.5515C11.4545 17.1026 11.3333 17.0177 11.2 16.9692C11.0666 16.9086 10.9091 16.8844 10.7272 16.8844C10.5333 16.8844 10.3636 16.9207 10.2181 17.0056C10.0727 17.0904 9.97572 17.2116 9.90299 17.3571C9.81814 17.5268 9.78178 17.7086 9.78178 17.9147ZM5.13936 16.8601C5.05451 16.9813 5.01814 17.1268 5.01814 17.2965C5.01814 17.442 5.04239 17.5632 5.09087 17.6238C5.13936 17.7086 5.19996 17.7813 5.28481 17.842C5.36966 17.9026 5.46663 17.951 5.5636 17.9874C5.61814 18.0056 5.67269 18.0207 5.72724 18.0359C5.78178 18.051 5.83633 18.0662 5.89087 18.0844C6.03632 18.1207 6.15754 18.1571 6.24239 18.1935C6.32723 18.2298 6.39996 18.2662 6.43633 18.3268C6.47269 18.3874 6.49693 18.4601 6.49693 18.545C6.49693 18.7995 6.31511 18.9207 5.95148 18.9207C5.78178 18.9207 5.61208 18.8965 5.44239 18.8359C5.28481 18.7874 5.13936 18.7026 5.01814 18.6056H5.00602L5.03026 19.0541C5.12723 19.1268 5.26057 19.1874 5.43026 19.2359C5.58784 19.2723 5.75754 19.2965 5.91511 19.2965C6.23026 19.2965 6.48481 19.2238 6.66663 19.0783C6.84845 18.9329 6.93329 18.7268 6.93329 18.448C6.93329 18.3026 6.90905 18.1935 6.86057 18.0965C6.81208 18.0116 6.75148 17.9389 6.66663 17.8783C6.5939 17.8298 6.49693 17.7813 6.38784 17.745C6.27875 17.7207 6.15754 17.6844 6.03632 17.648C5.90299 17.6116 5.7939 17.5753 5.70905 17.5389C5.6242 17.5026 5.5636 17.4541 5.51511 17.4056C5.47875 17.3571 5.45451 17.2844 5.45451 17.1874C5.45451 17.0662 5.50299 16.9813 5.59996 16.9329C5.69693 16.8844 5.81814 16.8601 5.9636 16.8601C6.06057 16.8601 6.15754 16.8723 6.25451 16.8965C6.35148 16.9207 6.44845 16.9571 6.5333 16.9935C6.61814 17.0298 6.69087 17.0783 6.75148 17.1268H6.7636L6.72723 16.6783C6.66663 16.642 6.56966 16.5935 6.44845 16.5571C6.32723 16.5207 6.16966 16.4965 5.9636 16.4965C5.78178 16.4965 5.6242 16.5329 5.47875 16.5935C5.33329 16.6541 5.2242 16.7389 5.13936 16.8601ZM7.30905 16.5571V19.2601H9.05451V18.8723H7.78178V18.048H8.78784V17.6723H7.78178V16.945H9.06663V16.5571H7.30905ZM13.6363 18.7632C13.5272 18.8723 13.3454 18.9207 13.103 18.9207C12.8606 18.9207 12.6787 18.8601 12.5697 18.751C12.4606 18.642 12.4121 18.4601 12.4121 18.2056V16.5571H11.9272V18.242C11.9272 18.6177 12.0242 18.8965 12.2303 19.0662C12.4363 19.2359 12.7151 19.3207 13.0787 19.3207C13.4424 19.3207 13.7212 19.2359 13.9151 19.0662C14.1091 18.8965 14.206 18.6177 14.206 18.242V16.5571H13.806V18.2177C13.806 18.4723 13.7454 18.6541 13.6363 18.7632ZM14.6787 16.5571H15.8303C16.0121 16.5571 16.1575 16.5935 16.2909 16.6662C16.4242 16.7389 16.5212 16.8359 16.5939 16.9571C16.6666 17.0783 16.703 17.2238 16.703 17.3813C16.703 17.5632 16.6545 17.7329 16.5454 17.8662C16.4484 17.9995 16.303 18.0965 16.1212 18.145L16.8242 19.2723H16.2788L15.6484 18.2056H15.1636V19.2723H14.6787V16.5571ZM15.6969 16.9329H15.1515V17.8541H15.6969C15.8666 17.8541 16 17.8177 16.0727 17.745C16.1454 17.6723 16.1939 17.551 16.1939 17.4056C16.1939 17.248 16.1575 17.1389 16.0727 17.0662C16 16.9692 15.8788 16.9329 15.6969 16.9329ZM17.1757 16.5571V19.2601H18.9333V18.8723H17.6606V18.048H18.6666V17.6723H17.6606V16.945H18.9333V16.5571H17.1757Z" fill="#A3A7AA"/>
</svg>
